<?xml version="1.0" encoding="iso-8859-1"?>
<!-- Generator: Adobe Illustrator 19.0.0, SVG Export Plug-In . SVG Version: 6.00 Build 0)  -->
<svg version="1.1" id="Layer_1" xmlns="http://www.w3.org/2000/svg" xmlns:xlink="http://www.w3.org/1999/xlink" x="0px" y="0px"
	 viewBox="0 0 511.467 511.467" style="enable-background:new 0 0 511.467 511.467;" xml:space="preserve">
<g transform="translate(1 1)">
	<g>
		<path style="fill:#FFE100;" d="M186.467,439.907c-1.707,0-4.267-0.853-5.973-1.707c-73.387-64-89.6-129.707-91.307-173.227
			c-0.853-52.907,19.627-103.253,57.173-138.24c3.413-3.413,8.533-3.413,11.947,0s3.413,8.533,0,11.947
			c-34.133,31.573-52.907,77.653-51.2,125.44c0.853,40.96,16.213,101.547,85.333,160.427c3.413,3.413,4.267,8.533,0.853,11.947
			C191.587,439.053,189.027,439.907,186.467,439.907z"/>
		<path style="fill:#FFE100;" d="M340.067,439.907c-2.56,0-5.12-0.853-6.827-2.56c-3.413-3.413-2.56-9.387,0.853-11.947
			c69.12-58.88,84.48-120.32,85.333-160.427c0.853-47.787-17.92-93.867-51.2-125.44c-3.413-3.413-3.413-8.533,0-11.947
			c3.413-3.413,8.533-3.413,11.947,0c37.547,34.987,58.027,85.333,57.173,138.24c-0.853,44.373-17.92,110.08-91.307,173.227
			C344.333,439.053,341.773,439.907,340.067,439.907z"/>
		<polygon style="fill:#FFE100;" points="254.733,277.773 270.947,326.413 323,328.973 280.333,363.107 297.4,414.307 
			254.733,380.173 212.067,414.307 229.133,363.107 186.467,328.973 238.52,326.413 		"/>
		<path style="fill:#FFE100;" d="M118.2,163.427L118.2,163.427L118.2,163.427c-28.16,0-51.2-23.04-51.2-51.2V78.093l0,0
			c28.16,0,51.2,23.04,51.2,51.2V163.427z"/>
		<path style="fill:#FFE100;" d="M85.773,241.933L85.773,241.933c-27.307,6.827-54.613-9.387-61.44-37.547l-8.533-33.28l0,0
			c27.307-6.827,55.467,10.24,62.293,37.547L85.773,241.933z"/>
		<path style="fill:#FFE100;" d="M96.867,320.44L96.867,320.44C72.973,335.8,41.4,329.827,26.04,305.933l-18.773-28.16l0,0
			c23.893-15.36,55.467-9.387,70.827,14.507L96.867,320.44z"/>
		<path style="fill:#FFE100;" d="M142.093,395.533L142.093,395.533c-14.507,24.747-45.227,33.28-69.973,18.773L42.253,397.24l0,0
			c14.507-24.747,45.227-33.28,69.973-18.773L142.093,395.533z"/>
	</g>
	<g>
		<path style="fill:#FFFFFF;" d="M84.067,117.347V83.213c1.707,0,2.56,0,3.413,0c-5.973-2.56-12.8-4.267-20.48-4.267v34.133
			c0,27.307,20.48,48.64,47.787,51.2C96.867,155.747,84.067,137.827,84.067,117.347"/>
		<path style="fill:#FFFFFF;" d="M41.4,209.507l-8.533-33.28c4.267-0.853,9.387-0.853,13.653-0.853
			c-9.387-3.413-20.48-4.267-30.72-1.707l8.533,33.28c5.973,23.04,25.6,38.4,47.787,39.253
			C57.613,239.373,44.813,226.573,41.4,209.507"/>
		<path style="fill:#FFFFFF;" d="M43.107,311.053l-18.773-28.16c9.387-5.973,19.627-8.533,29.867-8.533
			c-15.36-5.973-32.427-4.267-46.933,5.12l18.773,28.16c9.387,14.507,24.747,22.187,40.96,23.04
			C57.613,327.267,49.08,320.44,43.107,311.053"/>
		<path style="fill:#FFFFFF;" d="M89.187,419.427L59.32,402.36c9.387-17.067,27.307-26.453,46.08-25.6
			c-23.04-8.533-50.347,0-63.147,22.187l29.867,17.067c7.68,4.267,16.213,6.827,23.893,6.827
			C94.307,421.987,91.747,421.133,89.187,419.427"/>
	</g>
	<g>
		<path style="fill:#FFE100;" d="M101.133,200.973c14.507-24.747,40.96-40.107,67.413-30.72l32.427,11.093l0,0
			c-9.387,26.453-38.4,40.96-64.853,31.573L101.133,200.973z"/>
		<path style="fill:#FFE100;" d="M98.573,315.32L98.573,315.32c27.307,6.827,55.467-9.387,62.293-36.693l8.533-33.28
			c-27.307-6.827-55.467,9.387-62.293,36.693L98.573,315.32z"/>
		<path style="fill:#FFE100;" d="M391.267,163.427L391.267,163.427L391.267,163.427c28.16,0,51.2-23.04,51.2-51.2V78.093
			c-28.16,0-51.2,23.04-51.2,51.2V163.427z"/>
		<path style="fill:#FFE100;" d="M423.693,241.933L423.693,241.933c27.307,6.827,55.467-10.24,62.293-37.547l8.533-33.28
			c-27.307-6.827-55.467,10.24-62.293,37.547L423.693,241.933z"/>
		<path style="fill:#FFE100;" d="M412.6,320.44L412.6,320.44c23.893,15.36,55.467,9.387,70.827-14.507l18.773-28.16l0,0
			c-23.893-15.36-55.467-9.387-70.827,14.507L412.6,320.44z"/>
		<path style="fill:#FFE100;" d="M367.373,395.533L367.373,395.533c14.507,24.747,45.227,33.28,69.973,18.773l29.867-17.067l0,0
			c-14.507-24.747-45.227-33.28-69.973-18.773L367.373,395.533z"/>
	</g>
	<g>
		<path style="fill:#FFA800;" d="M423.693,83.213c0.853,0,0.853,0,1.707,0v34.133c0,21.333-13.653,40.107-32.427,47.787
			c27.307-0.853,49.493-23.04,49.493-51.2V79.8C435.64,79.8,429.667,80.653,423.693,83.213"/>
		<path style="fill:#FFA800;" d="M462.947,175.373c4.267,0,9.387,0,13.653,1.707l-8.533,32.427
			c-4.267,17.067-16.213,29.867-30.72,34.987c22.187-0.853,42.667-16.213,47.787-39.253l8.533-33.28
			C482.573,170.253,472.333,171.96,462.947,175.373"/>
		<path style="fill:#FFA800;" d="M455.267,274.36c10.24,0,20.48,2.56,29.867,8.533l-18.773,28.16
			c-5.973,9.387-14.507,15.36-23.893,19.627c16.213-0.853,31.573-8.533,40.96-23.04l18.773-28.16
			C487.693,270.093,470.627,268.387,455.267,274.36"/>
		<path style="fill:#FFA800;" d="M404.067,376.76c17.92-0.853,35.84,8.533,46.08,25.6l-29.867,17.067
			c-2.56,1.707-5.12,2.56-6.827,3.413c8.533,0,16.213-2.56,23.893-6.827l29.867-17.067
			C453.56,376.76,427.107,368.227,404.067,376.76"/>
	</g>
	<g>
		<path style="fill:#FFE100;" d="M408.333,200.973c-14.507-24.747-40.96-40.107-67.413-30.72l-32.427,11.093l0,0
			c9.387,26.453,38.4,40.96,64.853,31.573L408.333,200.973z"/>
		<path style="fill:#FFE100;" d="M410.893,315.32L410.893,315.32c-27.307,6.827-55.467-9.387-62.293-36.693l-8.533-33.28
			c27.307-6.827,55.467,9.387,62.293,36.693L410.893,315.32z"/>
	</g>
	<path d="M297.4,422.84c-1.707,0-3.413-0.853-5.12-1.707l-37.547-29.867l-37.547,29.867c-2.56,2.56-6.827,2.56-10.24,0
		c-3.413-2.56-4.267-5.973-3.413-9.387l15.36-45.227l-38.4-30.72c-2.56-2.56-4.267-5.973-2.56-9.387
		c1.707-3.413,4.267-5.973,8.533-5.973l46.08-1.707l14.507-43.52c0.853-3.413,4.267-5.973,7.68-5.973c3.413,0,6.827,2.56,7.68,5.973
		l14.507,43.52L323,320.44c3.413,0,6.827,2.56,7.68,5.973c0.853,3.413,0,6.827-2.56,9.387l-38.4,30.72l15.36,45.227
		c0.853,3.413,0,7.68-3.413,9.387C300.813,421.987,299.107,422.84,297.4,422.84z M254.733,371.64c1.707,0,3.413,0.853,5.12,1.707
		l20.48,16.213l-7.68-23.893c-0.853-3.413,0-6.827,2.56-9.387l24.747-19.627l-29.013-1.707c-3.413,0-6.827-2.56-7.68-5.973
		l-8.533-24.747l-8.533,24.747c-0.853,3.413-4.267,5.973-7.68,5.973l-29.013,1.707l24.747,19.627c2.56,2.56,4.267,5.973,2.56,9.387
		l-7.68,23.893l20.48-16.213C251.32,372.493,253.027,371.64,254.733,371.64z"/>
	<path d="M177.933,439.907c-1.707,0-4.267-0.853-5.973-1.707c-73.387-64-89.6-129.707-91.307-173.227
		c-0.853-52.907,19.627-103.253,57.173-138.24c3.413-3.413,8.533-3.413,11.947,0c3.413,3.413,3.413,8.533,0,11.947
		c-34.133,31.573-52.907,77.653-51.2,125.44c0.853,40.96,16.213,101.547,85.333,160.427c3.413,3.413,4.267,8.533,0.853,11.947
		C183.053,439.053,180.493,439.907,177.933,439.907z"/>
	<path d="M118.2,171.96L118.2,171.96c-33.28,0-59.733-26.453-59.733-59.733V78.093c0-5.12,3.413-8.533,8.533-8.533
		c33.28,0,59.733,26.453,59.733,59.733v34.133c0,2.56-0.853,4.267-2.56,5.973S120.76,171.96,118.2,171.96z M75.533,87.48v24.747
		c0,20.48,14.507,37.547,34.133,41.813v-24.747C109.667,108.813,95.16,91.747,75.533,87.48z"/>
	<path d="M73.827,252.173c-26.453,0-51.2-17.92-58.027-45.227l-8.533-33.28c0-2.56,0-4.267,0.853-6.827
		c0.853-1.707,3.413-3.413,5.12-4.267c31.573-7.68,64,11.947,72.533,43.52l8.533,33.28c0.853,4.267-1.707,9.387-5.973,10.24
		C83.213,251.32,78.093,252.173,73.827,252.173z M26.04,178.787l5.973,23.893c5.12,19.627,23.893,33.28,43.52,32.427l-5.973-23.893
		C64.44,190.733,45.667,177.933,26.04,178.787z"/>
	<path d="M68.707,337.507c-4.267,0-7.68,0-11.947-0.853c-15.36-3.413-29.013-11.947-37.547-25.6L0.44,282.893
		c-2.56-4.267-1.707-9.387,2.56-11.947c13.653-8.533,29.013-11.947,45.227-8.533c15.36,3.413,29.013,11.947,37.547,25.6
		l18.773,28.16c0.853,1.707,1.707,4.267,0.853,6.827s-1.707,4.267-3.413,5.12C91.747,334.093,80.653,337.507,68.707,337.507z
		 M19.213,281.187l13.653,20.48c5.973,9.387,16.213,16.213,27.307,17.92c8.533,1.707,17.067,0.853,24.747-2.56l-13.653-20.48
		c-5.973-9.387-16.213-16.213-27.307-17.92C35.427,276.92,26.893,277.773,19.213,281.187z"/>
	<path d="M97.72,429.667c-10.24,0-20.48-2.56-29.867-7.68L37.987,404.92c-1.707-0.853-3.413-3.413-4.267-5.12
		c-0.853-2.56,0-4.267,0.853-6.827c16.213-28.16,52.907-38.4,81.92-22.187l29.867,17.067c4.267,2.56,5.12,7.68,3.413,11.947
		c-7.68,13.653-20.48,23.893-36.693,28.16C107.96,428.813,102.84,429.667,97.72,429.667z M55.053,394.68l21.333,11.947
		c10.24,5.973,21.333,6.827,32.427,4.267c8.533-2.56,15.36-6.827,20.48-12.8l-21.333-12.8
		C90.893,375.907,68.707,379.32,55.053,394.68z"/>
	<path d="M152.333,224.013c-6.827,0-12.8-0.853-19.627-3.413L97.72,208.653c-2.56-0.853-4.267-2.56-5.12-5.12
		c0-2.56,0-5.12,0.853-6.827c17.92-30.72,48.64-44.373,77.653-34.987l32.427,11.093c4.267,1.707,6.827,5.973,5.12,11.093
		c-5.12,15.36-16.213,27.307-29.867,34.133C170.253,221.453,161.72,224.013,152.333,224.013z M114.787,195.853l23.893,8.533
		c11.093,3.413,22.187,2.56,32.427-1.707c7.68-3.413,13.653-9.387,17.92-17.067l-23.04-7.68
		C145.507,170.253,126.733,181.347,114.787,195.853z"/>
	<path d="M111.373,325.56c-5.12,0-10.24-0.853-15.36-1.707c-2.56-0.853-4.267-1.707-5.12-4.267c-0.853-2.56-1.707-4.267-0.853-6.827
		l8.533-33.28c4.267-15.36,13.653-28.16,27.307-36.693c13.653-7.68,29.867-10.24,45.227-5.973c2.56,0.853,4.267,1.707,5.12,4.267
		c0.853,1.707,1.707,4.267,0.853,6.827l-8.533,33.28c-4.267,15.36-13.653,28.16-27.307,36.693
		C131.853,322.147,121.613,325.56,111.373,325.56z M108.813,308.493c8.533,0,16.213-1.707,23.893-5.973
		c10.24-5.973,17.067-15.36,19.627-26.453l5.973-23.893c-8.533-0.853-16.213,1.707-23.893,5.973
		c-10.24,5.973-17.067,15.36-19.627,26.453L108.813,308.493z"/>
	<path d="M331.533,439.907c-2.56,0-5.12-0.853-6.827-2.56c-3.413-3.413-2.56-9.387,0.853-11.947
		c69.12-58.88,84.48-120.32,85.333-160.427c0.853-47.787-17.92-93.867-51.2-125.44c-3.413-3.413-3.413-8.533,0-11.947
		c3.413-3.413,8.533-3.413,11.947,0c37.547,34.987,58.027,85.333,57.173,138.24c-0.853,44.373-17.92,110.08-91.307,173.227
		C335.8,439.053,333.24,439.907,331.533,439.907z"/>
	<path d="M391.267,171.96c-2.56,0-4.267-0.853-5.973-2.56c-1.707-1.707-2.56-3.413-2.56-5.973v-34.133
		c0-33.28,26.453-59.733,59.733-59.733c5.12,0,8.533,3.413,8.533,8.533v34.133C451,145.507,424.547,171.96,391.267,171.96
		L391.267,171.96z M433.933,87.48c-19.627,4.267-34.133,21.333-34.133,41.813v24.747c19.627-4.267,34.133-21.333,34.133-41.813
		V87.48z"/>
	<path d="M435.64,252.173c-5.12,0-9.387-0.853-14.507-1.707c-4.267-0.853-7.68-5.973-5.973-10.24l8.533-33.28
		c7.68-31.573,40.107-51.2,72.533-43.52c2.56,0.853,4.267,1.707,5.12,4.267c0.853,1.707,1.707,4.267,0.853,6.827l-8.533,33.28
		c-3.413,15.36-13.653,28.16-27.307,36.693C456.973,249.613,446.733,252.173,435.64,252.173z M433.933,235.107
		c8.533,0,16.213-1.707,23.893-5.973c9.387-5.973,16.213-15.36,19.627-26.453l5.973-23.893c-19.627-0.853-38.4,12.8-43.52,32.427
		L433.933,235.107z"/>
	<path d="M440.76,337.507c-11.093,0-23.04-3.413-33.28-10.24c-1.707-0.853-3.413-3.413-3.413-5.12c-0.853-2.56,0-4.267,0.853-6.827
		l18.773-28.16c8.533-13.653,22.187-22.187,37.547-25.6s31.573,0,45.227,8.533c4.267,2.56,5.12,7.68,2.56,11.947l-18.773,28.16
		C479.16,328.12,459.533,337.507,440.76,337.507z M424.547,317.88c18.773,7.68,40.107,0.853,51.2-16.213l13.653-20.48
		c-7.68-3.413-16.213-4.267-24.747-2.56c-11.093,2.56-20.48,8.533-27.307,17.92L424.547,317.88z"/>
	<path d="M411.747,429.667c-20.48,0-40.96-11.093-52.053-29.867c-0.853-1.707-1.707-4.267-0.853-6.827s1.707-4.267,4.267-5.12
		l29.867-17.067c28.16-16.213,64.853-6.827,81.92,22.187c0.853,1.707,1.707,4.267,0.853,6.827s-1.707,4.267-4.267,5.12
		l-29.867,17.067C432.227,427.107,421.987,429.667,411.747,429.667z M379.32,398.093c12.8,14.507,35.84,18.773,52.907,8.533
		l21.333-11.947c-12.8-14.507-35.84-18.773-52.907-8.533L379.32,398.093z"/>
	<path d="M357.133,224.013c-9.387,0-17.92-1.707-26.453-5.973c-14.507-6.827-24.747-19.627-29.867-34.133
		c-1.707-4.267,0.853-9.387,5.12-11.093l32.427-11.093c29.013-9.387,59.733,4.267,77.653,34.987c1.707,2.56,1.707,5.12,0.853,7.68
		s-2.56,4.267-5.12,5.12l-34.987,11.947C369.933,222.307,363.96,224.013,357.133,224.013z M320.44,185.613
		c4.267,6.827,10.24,12.8,17.92,17.067c10.24,5.12,22.187,5.973,32.427,1.707l23.893-8.533c-11.947-15.36-30.72-25.6-51.2-18.773
		L320.44,185.613z"/>
	<path d="M398.093,325.56c-26.453,0-51.2-17.92-58.027-44.373l-8.533-33.28c-0.853-2.56,0-4.267,0.853-6.827
		c0.853-1.707,3.413-3.413,5.12-4.267c15.36-4.267,31.573-1.707,45.227,5.973s23.893,21.333,27.307,36.693l8.533,33.28
		c0.853,2.56,0,4.267-0.853,6.827c-0.853,1.707-3.413,3.413-5.12,4.267C408.333,324.707,403.213,325.56,398.093,325.56z
		 M350.307,252.173l5.973,23.893c2.56,11.093,10.24,20.48,19.627,26.453c7.68,4.267,15.36,5.973,23.893,5.973l-5.973-23.893
		c-2.56-11.093-10.24-20.48-19.627-26.453C367.373,253.88,358.84,252.173,350.307,252.173z"/>
</g>
<g>
</g>
<g>
</g>
<g>
</g>
<g>
</g>
<g>
</g>
<g>
</g>
<g>
</g>
<g>
</g>
<g>
</g>
<g>
</g>
<g>
</g>
<g>
</g>
<g>
</g>
<g>
</g>
<g>
</g>
</svg>
